# xmcd CD database file
#
# Track frame offsets:
#	150
#	23373
#	38151
#	73925
#	104333
#	128565
#	159182
#	189661
#	217401
#	232853
#
# Disc length: 3188 seconds
#
# Revision: 0
# Processed by: cddbd v1.5.2PL0 Copyright (c) Steve Scherf et al.
# Submitted via: CDex 1.81
#
DISCID=800c720a
DTITLE=Raphaelle Brochet-Philippe Aerts - Kamalamba
DYEAR=2017
DGENRE=Jazz
TTITLE0=Kedaram
TTITLE1=O bebabo e a equilibrista
TTITLE2=Crystal silence
TTITLE3=Santhanam
TTITLE4=Folhas secas
TTITLE5=Kamalamba
TTITLE6=Spring can really hang up the most
TTITLE7=Sah'ra
TTITLE8=Estar a ti
TTITLE9=Sah'ra epilogue
EXTD=YEAR: 2017
EXTT0=
EXTT1=
EXTT2=
EXTT3=
EXTT4=
EXTT5=
EXTT6=
EXTT7=
EXTT8=
EXTT9=
PLAYORDER=
